<svg width="110" height="63" viewBox="0 0 110 63" fill="none" xmlns="http://www.w3.org/2000/svg">
<path d="M5.89913 9.51796C9.54853 15.1228 11.7333 17.761 15.9153 21.4258C4.61025 20.0868 0.79049 16.657 0.599085 3.49556C13.0931 6.14253 17.1883 9.56065 17.9091 20.0347C12.7587 15.785 10.2215 13.5109 5.89913 9.51796Z" fill="#75AD24"/>
<path d="M24.0988 13.4256C22.7884 16.5023 21.9417 17.9911 20.2006 20.1587C25.651 18.5179 27.2341 16.4974 26.1856 10C20.2634 12.3882 18.5436 14.4268 19.0981 19.6469C21.2652 17.1071 22.3171 15.7671 24.0988 13.4256Z" fill="#75AD24"/>
<path d="M54.5 62C78.2633 64.3461 88.6253 59.9065 103.5 45C89.0517 51.2709 81.4612 53.1602 69.5 51.5C114.798 36.4668 118.896 27.7712 97 12C109.753 23.2783 100.206 28.247 69.5 36C39.7022 36.8213 28.1446 33.6307 18 20.5C23.2843 42.4425 38.7244 46.2102 81.5 42.5C57.3161 48.9553 44.3489 50.7092 24.5 43.5C38.8647 57.1187 51.5935 59.1687 80 56C73.7069 60.3183 67.4363 61.2616 54.5 62Z" fill="#8B4513"/>
<path d="M54.1 12.125L43.65 17.75L49.4 21.65C49.8167 21.9167 50.075 22.2 50.175 22.5C50.2917 22.7833 50.2667 22.9833 50.1 23.1C49.95 23.2 49.675 23.1167 49.275 22.85L42.025 17.95C41.6583 17.7 41.4 17.425 41.25 17.125C41.1 16.825 41.125 16.625 41.325 16.525L52.55 10.475C52.7 10.3917 52.8917 10.4167 53.125 10.55C53.3583 10.6667 53.575 10.8333 53.775 11.05C53.9917 11.2667 54.1417 11.4833 54.225 11.7C54.3083 11.9 54.2667 12.0417 54.1 12.125ZM74.1398 5.2L56.6648 27.35C56.5482 27.5 56.3815 27.525 56.1648 27.425C55.9315 27.3417 55.7065 27.2 55.4898 27C55.2565 26.8 55.0815 26.5833 54.9648 26.35C54.8482 26.1333 54.8398 25.9667 54.9398 25.85L72.4148 3.7C72.5315 3.55 72.6982 3.525 72.9148 3.625C73.1482 3.70833 73.3732 3.85 73.5898 4.05C73.8232 4.25 73.9982 4.45833 74.1148 4.675C74.2315 4.89167 74.2398 5.06667 74.1398 5.2ZM78.9018 10.7L86.1518 15.6C86.5351 15.85 86.7934 16.125 86.9268 16.425C87.0768 16.725 87.0518 16.925 86.8518 17.025L75.6268 23.075C75.4768 23.1583 75.2851 23.1417 75.0518 23.025C74.8184 22.8917 74.5934 22.7167 74.3768 22.5C74.1768 22.2833 74.0351 22.075 73.9518 21.875C73.8684 21.6583 73.9101 21.5083 74.0768 21.425L84.5268 15.8L78.7768 11.9C78.3934 11.6333 78.1434 11.3583 78.0268 11.075C77.9101 10.775 77.9268 10.5667 78.0768 10.45C78.2268 10.3333 78.5018 10.4167 78.9018 10.7Z" fill="#FF7A00"/>
</svg>
